HIERARCHY
ROOT Hips
{
	OFFSET 0.000000 0.000000 0.000000 
	CHANNELS 6 Xposition Yposition Zposition Zrotation Yrotation Xrotation
	JOINT LeftUpLeg
	{
		OFFSET 1.363060 -1.794630 0.839290 
		CHANNELS 3 Zrotation Yrotation Xrotation
		JOINT LeftLeg
		{
			OFFSET 2.448110 -6.726130 0.000000 
			CHANNELS 3 Zrotation Yrotation Xrotation
			JOINT LeftFoot
			{
				OFFSET 2.562200 -7.039590 0.000000 
				CHANNELS 3 Zrotation Yrotation Xrotation
				JOINT LeftToeBase
				{
					OFFSET 0.157640 -0.433110 2.322550 
					CHANNELS 3 Zrotation Yrotation Xrotation
					End Site
					{
						OFFSET 0.000000 0.000000 0.000000 
					}
				}
			}
		}
	}
	JOINT RightUpLeg
	{
		OFFSET -1.305520 -1.794630 0.839290 
		CHANNELS 3 Zrotation Yrotation Xrotation
		JOINT RightLeg
		{
			OFFSET -2.542530 -6.985550 0.000000 
			CHANNELS 3 Zrotation Yrotation Xrotation
			JOINT RightFoot
			{
				OFFSET -2.568260 -7.056230 0.000000 
				CHANNELS 3 Zrotation Yrotation Xrotation
				JOINT RightToeBase
				{
					OFFSET -0.164730 -0.452590 2.363150 
					CHANNELS 3 Zrotation Yrotation Xrotation
					End Site
					{
						OFFSET 0.000000 0.000000 0.000000 
					}
				}
			}
		}
	}
	JOINT Spine
	{
		OFFSET 0.028270 2.035590 -0.193380 
		CHANNELS 3 Zrotation Yrotation Xrotation
		JOINT Spine1
		{
			OFFSET 0.056720 2.048850 -0.042750 
			CHANNELS 3 Zrotation Yrotation Xrotation
			JOINT Neck1
			{
				OFFSET -0.054170 1.746240 0.172020 
				CHANNELS 3 Zrotation Yrotation Xrotation
				JOINT Head
				{
					OFFSET 0.104070 1.761360 -0.123970 
					CHANNELS 3 Zrotation Yrotation Xrotation
					End Site
					{
						OFFSET 0.000000 0.000000 0.000000 
					}
				}
			}
			JOINT LeftArm
			{
				OFFSET 3.362410 1.200890 -0.311210 
				CHANNELS 3 Zrotation Yrotation Xrotation
				JOINT LeftForeArm
				{
					OFFSET 4.983000 -0.000000 -0.000000 
					CHANNELS 3 Zrotation Yrotation Xrotation
					JOINT LeftHand
					{
						OFFSET 3.483560 -0.000000 -0.000000 
						CHANNELS 3 Zrotation Yrotation Xrotation
						JOINT LeftHandIndex1
						{
							OFFSET 0.715260 -0.000000 -0.000000 
							CHANNELS 3 Zrotation Yrotation Xrotation
							End Site
							{
								OFFSET 0.000000 0.000000 0.000000 
							}
						}
					}
				}
			}
			JOINT RightArm
			{
				OFFSET -3.136600 1.374050 -0.404650 
				CHANNELS 3 Zrotation Yrotation Xrotation
				JOINT RightForeArm
				{
					OFFSET -5.241900 -0.000000 -0.000000 
					CHANNELS 3 Zrotation Yrotation Xrotation
					JOINT RightHand
					{
						OFFSET -3.444170 -0.000000 -0.000000 
						CHANNELS 3 Zrotation Yrotation Xrotation
						JOINT RightHandIndex1
						{
							OFFSET -0.622530 -0.000000 -0.000000 
							CHANNELS 3 Zrotation Yrotation Xrotation
							End Site
							{
								OFFSET 0.000000 0.000000 0.000000 
							}
						}
					}
				}
			}
		}
	}
}
MOTION
Frames: 7
Frame Time: 0.041667
9.878362 17.860731 34.770452 177.219488 -3.832705 -159.712341 -30.103642 -18.163049 -13.852535 -0.862917 5.532990 13.577205 0.360083 -5.438307 -17.789257 4.199700 -12.421600 -37.240100 29.843534 15.216830 -11.352729 1.162883 -3.911675 10.665115 -1.288871 -2.851802 -22.323781 -2.205700 9.282000 -26.681500 1.201122 -1.200508 -5.278340 -0.005826 -1.411304 12.525030 11.826461 -4.143197 -5.710697 2.290900 -3.072900 -4.718600 -106.375135 -9.471985 20.597443 11.714620 -12.797337 -1.651093 -2.020895 0.870742 -0.292386 -7.125000 0.000000 0.000000 100.151754 3.315167 12.718755 -12.681190 22.487372 -3.394594 0.807854 4.157982 1.587426 7.125000 0.000000 0.000000 
9.875731 17.852620 34.779658 177.033690 -3.617684 -159.668083 -30.308404 -17.851398 -14.114430 -0.843594 5.603481 13.734088 0.324303 -5.629719 -17.707920 4.165100 -12.376900 -37.078700 29.436674 15.295408 -11.643500 1.143162 -3.999892 10.839485 -1.526134 -1.834578 -23.888686 -1.506200 7.751200 -21.961000 1.164865 -1.070565 -5.286918 0.010665 -1.355318 12.422753 11.831154 -4.122297 -5.741286 2.301100 -3.061800 -4.736100 -106.405282 -9.250606 20.624593 11.359991 -12.205241 -1.518690 -2.107899 0.879159 1.423219 -7.125000 0.000000 0.000000 100.087765 3.091203 12.858937 -12.643496 22.448688 -3.388426 0.837894 4.199216 1.288441 7.125000 0.000000 0.000000 
9.872882 17.845277 34.788536 176.792206 -3.396937 -159.574173 -30.582536 -17.759647 -14.261211 -0.840310 5.638987 13.794427 0.327920 -5.635601 -17.770963 4.232500 -12.463500 -37.392100 28.887492 15.972558 -12.687995 1.049922 -4.728638 12.485035 -1.858748 -1.092523 -26.227179 -1.029400 6.453900 -18.107200 1.133980 -0.977793 -5.294129 0.045334 -1.324743 12.351081 11.836734 -4.085711 -5.784412 2.321800 -3.042200 -4.749900 -106.439157 -9.020605 20.503555 11.016890 -11.640886 -1.398906 -2.180008 0.921775 3.281489 -7.125000 0.000000 0.000000 100.020188 2.863765 12.939836 -12.650966 22.472976 -3.402218 0.871584 4.235246 1.113332 7.125000 0.000000 0.000000 
9.850194 17.822261 34.730338 175.980896 -2.598590 -160.082724 -32.179469 -17.402028 -12.932607 -0.878585 5.312225 13.152941 0.411870 -5.301300 -18.032639 4.200500 -12.422500 -37.243500 27.812169 15.166532 -12.080110 0.993277 -4.596013 12.466398 -2.367282 0.767473 -28.653521 -0.596800 4.945500 -13.753100 0.963112 -0.542626 -5.138680 0.016807 -1.167000 12.884621 11.765006 -4.077840 -6.198436 2.306100 -3.084600 -4.965600 -106.374652 -8.819167 20.442909 10.655993 -11.065113 -1.278561 -2.251180 0.962137 4.919588 -7.125000 0.000000 0.000000 100.050563 2.740291 12.748689 -12.562753 22.374766 -3.371584 0.919776 4.268127 1.194453 7.125000 0.000000 0.000000 
9.857428 17.845168 34.752916 176.949181 -2.632804 -159.674744 -30.804758 -17.421708 -13.720650 -0.888847 5.416354 13.318873 0.418663 -5.141230 -17.947851 4.064300 -12.245500 -36.606000 29.117799 16.096707 -12.426271 1.049933 -4.686442 12.408124 -1.411661 -2.381155 -23.340574 -3.028200 10.740600 -31.409800 1.019748 -0.517430 -5.192741 -0.295213 -1.105559 12.771234 11.767168 -4.125946 -6.158305 2.296500 -3.108800 -4.936700 -106.090248 -8.687224 21.297928 10.290877 -10.435403 -1.162526 -2.353810 0.928519 5.426675 -7.125000 0.000000 0.000000 100.270339 2.782654 12.366581 -12.431328 22.215207 -3.329927 0.978114 4.291866 1.379791 7.125000 0.000000 0.000000 
9.854797 17.826535 34.769137 176.857417 -3.182098 -158.770451 -30.536823 -18.168836 -14.951634 -0.868777 5.693929 13.746078 0.361116 -5.333737 -17.838577 4.107900 -12.302700 -36.811300 28.819211 16.462581 -13.173429 1.121619 -4.613128 11.942906 -1.362756 -3.031219 -23.360560 -2.893500 10.520600 -30.679600 1.071849 -0.804278 -5.315373 -0.284635 -1.251888 12.772862 11.731904 -4.150144 -6.176598 2.301800 -3.113700 -4.946600 -105.978655 -8.379543 23.374079 9.902917 -9.751613 -1.050083 -2.585162 0.869288 5.483124 -7.125000 0.000000 0.000000 100.178756 2.735168 11.733013 -12.254577 21.958442 -3.245028 0.999594 4.290534 2.247096 7.125000 0.000000 0.000000 
9.852276 17.826207 34.767164 176.857759 -3.232306 -158.779112 -30.564213 -18.200779 -14.913645 -0.868609 5.701059 13.773324 0.375274 -5.306744 -17.934909 4.227400 -12.457100 -37.368700 28.881135 16.882890 -12.772703 1.162239 -4.475027 11.621076 -1.341566 -3.575792 -23.390058 -2.948800 10.611700 -30.981400 1.076533 -0.850908 -5.332019 -0.335243 -1.263529 12.680948 11.681080 -4.107985 -6.355946 2.299400 -3.106300 -5.047600 -106.020040 -8.119003 22.216077 9.735515 -9.494380 -0.997469 -2.501444 0.881639 6.859285 -7.125000 0.000000 0.000000 100.128316 2.627283 10.804290 -11.925633 21.460771 -3.081192 1.047686 4.212977 3.644987 7.125000 0.000000 0.000000 
